<svg xmlns="http://www.w3.org/2000/svg" width="800" height="399" viewBox="0 0 800 399"><title>boardingtemplate</title><polygon points="19.5 359.02 91.24 359.02 569 359.02 569 384 19.5 384 19.5 359.02" style="fill:none;stroke:#000;stroke-miterlimit:10"/><path d="M17.5,270.9H570V300H17.5S18,270.59,17.5,270.9Z" transform="translate(0)" style="fill:none;stroke:#000;stroke-miterlimit:10"/><path d="M15.5,188H570.34v27H15.5S16.16,188.39,15.5,188Z" transform="translate(0)" style="fill:none;stroke:#000;stroke-miterlimit:10"/><path d="M19.5,328H568v26H19.5S21.88,328,19.5,328Z" transform="translate(0)" style="fill:none;stroke:#000;stroke-miterlimit:10"/><path d="M17.5,241.9H570V266H17.5S19.33,241.64,17.5,241.9Z" transform="translate(0)" style="fill:none;stroke:#000;stroke-miterlimit:10"/><polygon points="15.5 158.5 408.7 158.5 571 158.5 571 184 15.5 184 15.5 158.5" style="fill:none;stroke:#000;stroke-miterlimit:10"/><path d="M455.86,101.5H570V135H455.86S456.37,102.49,455.86,101.5Z" transform="translate(0)" style="fill:none;stroke:#000;stroke-miterlimit:10"/><path d="M14.5,103H283v30H14.5S15.72,103.88,14.5,103Z" transform="translate(0)" style="fill:none;stroke:#000;stroke-miterlimit:10"/><polygon points="1.5 0.5 799.5 0.5 799.5 398.5 0.5 398.5 1.5 0.5" style="fill:none;stroke:#000;stroke-miterlimit:10"/></svg>